<svg version="1.1" id="Layer_1" xmlns="http://www.w3.org/2000/svg" xmlns:xlink="http://www.w3.org/1999/xlink" x="0px" y="0px"
	 width="100%" viewBox="0 0 1024 1024" enable-background="new 0 0 1024 1024" xml:space="preserve">
<path fill="#000000" opacity="1.000000" stroke="none" 
	d="
M561.049438,110.722931 
	C560.598694,107.481178 560.114258,104.683868 559.923584,101.866676 
	C559.801270,100.058441 558.862793,97.324471 562.086792,97.389389 
	C564.561768,97.439232 567.747803,97.126625 568.309692,100.888206 
	C569.315735,107.622696 570.351257,114.354042 571.240295,121.104362 
	C572.085266,127.520142 572.758789,133.958511 573.564392,140.874252 
	C575.538940,139.867798 576.091309,138.124817 576.928528,136.704880 
	C582.597290,127.090630 588.261719,117.473305 593.832520,107.802193 
	C595.287354,105.276573 596.694397,103.681381 600.115234,104.507690 
	C603.477478,105.319839 604.036438,107.321259 604.403442,110.235649 
	C605.971802,122.690262 607.750488,135.118393 609.663086,149.095245 
	C614.767029,140.352798 619.111023,132.940903 623.424194,125.511108 
	C625.347961,122.197495 627.203430,118.844376 629.100708,115.515327 
	C631.830444,110.725365 633.385254,110.363823 638.693726,113.316536 
	C638.958557,115.503029 637.328430,116.963364 636.394958,118.628059 
	C628.981628,131.848679 621.391846,144.970840 614.045044,158.227859 
	C612.378235,161.235489 610.424744,162.036560 607.166870,161.363495 
	C604.024902,160.714401 602.877625,159.140579 602.480957,155.990707 
	C600.945618,143.797958 599.106995,131.643387 597.350525,119.257545 
	C595.481018,119.580208 595.137207,121.208984 594.463074,122.355568 
	C588.975159,131.688583 583.448242,141.001938 578.176147,150.456726 
	C576.399963,153.642014 574.488831,155.061401 570.650146,154.313293 
	C566.672913,153.538193 566.243164,150.766968 565.849121,147.753143 
	C564.254883,135.558289 562.705933,123.357529 561.049438,110.722931 
z"/>
<path fill="#000000" opacity="1.000000" stroke="none" 
	d="
M446.059814,950.987610 
	C441.564667,958.624878 437.261444,965.950867 432.945709,973.269470 
	C431.674377,975.425354 430.648529,977.654846 427.247894,976.819458 
	C424.239502,976.080322 422.899780,974.785706 422.507416,971.520691 
	C420.982178,958.828125 419.088318,946.179932 417.307495,933.341370 
	C415.624084,933.495728 415.305939,934.940918 414.714417,935.968445 
	C409.063660,945.785522 403.246338,955.515991 397.931366,965.512939 
	C395.426788,970.223938 392.484070,970.632629 388.362396,968.419250 
	C387.568634,966.212158 389.009735,964.765320 389.869202,963.247742 
	C397.340485,950.054871 404.962219,936.946472 412.339783,923.701843 
	C414.141479,920.467346 416.162994,919.081543 419.930511,919.914612 
	C423.463043,920.695557 424.054474,922.892334 424.444366,926.023987 
	C425.918915,937.867249 427.697296,949.672607 429.438782,962.037292 
	C431.636597,960.596863 432.412384,958.764099 433.365845,957.123779 
	C438.472870,948.337769 443.618866,939.572693 448.579834,930.704407 
	C450.239502,927.737488 452.138245,926.218384 455.754944,926.874207 
	C459.198517,927.498596 460.203857,929.368958 460.607910,932.634033 
	C462.567383,948.468018 464.783813,964.270142 466.890472,980.086121 
	C467.108276,981.721375 467.544769,983.925171 465.121399,983.898376 
	C462.414337,983.868591 459.041565,983.940002 458.317719,980.243774 
	C457.552765,976.337708 457.209137,972.348755 456.690460,968.394836 
	C455.483032,959.189636 454.281006,949.983643 452.868805,939.188416 
	C450.151703,943.900940 448.199310,947.287231 446.059814,950.987610 
z"/>
<path fill="#000000" opacity="1.000000" stroke="none" 
	d="
M256.949341,904.066101 
	C251.062485,899.409119 245.166595,895.276672 239.926300,890.434753 
	C232.015732,883.125549 227.502335,874.205994 230.850616,863.150757 
	C234.026718,852.664062 240.995682,845.715088 251.867523,843.236267 
	C259.696411,841.451172 266.813568,843.962036 273.163940,848.183228 
	C279.246368,852.226379 284.797974,857.062805 290.645111,861.467957 
	C292.806366,863.096252 293.127075,864.569519 291.370148,866.823608 
	C281.857910,879.026917 272.425446,891.292969 263.043091,903.596558 
	C261.209564,906.000854 259.423859,906.219482 256.949341,904.066101 
M255.984680,893.284302 
	C258.517914,895.550354 259.790314,893.496826 261.119690,891.760986 
	C264.859924,886.876953 268.638306,882.020569 272.291046,877.071655 
	C275.320007,872.967834 279.039032,869.342407 281.310944,864.794556 
	C277.922424,860.974182 269.398712,854.584534 265.679993,852.997070 
	C256.652161,849.143127 247.603485,851.588074 242.296478,859.315369 
	C236.448761,867.830078 236.972748,876.395203 244.276154,883.713135 
	C247.659836,887.103577 251.696472,889.842468 255.984680,893.284302 
z"/>
<path fill="#000000" opacity="1.000000" stroke="none" 
	d="
M224.368652,278.362427 
	C213.751373,289.158905 213.763947,289.145752 203.015335,278.858429 
	C194.713440,270.912781 186.450104,262.924011 178.009537,255.127731 
	C175.265411,252.593079 175.286667,250.830231 177.945587,248.242172 
	C182.834457,243.483566 187.171738,238.147659 192.156006,233.499634 
	C208.036407,218.690552 231.120117,224.364136 237.465836,244.646759 
	C240.247742,253.538437 238.086838,261.794739 232.520035,269.099976 
	C230.104752,272.269562 227.261383,275.112946 224.368652,278.362427 
M189.248703,247.608414 
	C188.367752,248.738632 186.797623,249.442520 187.027954,251.735947 
	C195.100815,259.343292 203.451447,267.179535 211.754929,275.065369 
	C213.376038,276.604980 214.791153,276.835052 216.427124,275.137238 
	C219.996216,271.433228 223.899155,268.022491 226.763351,263.696289 
	C232.305664,255.324921 230.944092,245.063599 223.479919,238.432785 
	C216.105011,231.881256 206.268204,231.750488 198.557388,238.354935 
	C195.414352,241.046997 192.660614,244.193558 189.248703,247.608414 
z"/>
<path fill="#000000" opacity="1.000000" stroke="none" 
	d="
M704.460815,927.488098 
	C700.487061,931.040100 698.135193,930.171692 695.968506,925.725525 
	C692.110291,917.807800 687.660645,910.180908 683.622681,902.347595 
	C673.745422,883.186768 684.410156,866.426880 706.277527,866.672729 
	C708.594543,866.698792 711.129700,866.484009 711.299194,869.972534 
	C711.430908,872.684937 710.862122,874.532654 707.568298,874.399048 
	C702.615845,874.198120 698.023071,875.576294 693.780579,878.076782 
	C686.773682,882.206665 685.481812,887.693115 690.102234,895.345337 
	C693.804443,888.537903 699.332397,884.391418 706.733887,883.017151 
	C710.924438,882.239075 715.008179,882.643494 718.887573,884.580017 
	C726.611145,888.435425 731.460876,897.632874 729.973694,905.673584 
	C727.997314,916.359070 719.894348,922.346375 705.677917,923.590454 
	C704.339966,924.498901 705.619019,926.169006 704.460815,927.488098 
M721.749329,903.381287 
	C721.496765,901.922058 721.418091,900.405701 720.960449,899.013855 
	C719.342224,894.092590 715.846680,891.415833 710.702759,890.969360 
	C704.658142,890.444702 698.984253,893.425110 696.622437,898.354919 
	C694.294495,903.214050 695.008423,907.759949 698.506287,911.739319 
	C701.485046,915.128174 705.121643,917.218567 709.902771,916.042175 
	C716.244507,914.481934 720.539124,910.881226 721.749329,903.381287 
z"/>
<path fill="#000000" opacity="1.000000" stroke="none" 
	d="
M361.747620,152.334808 
	C364.860992,159.370514 367.999847,165.989059 370.703491,172.780853 
	C375.120453,183.876663 371.859406,192.197342 361.172943,197.663681 
	C355.477753,200.576859 349.454956,202.475632 342.979980,201.895721 
	C340.841064,201.704163 338.229126,201.486191 338.604431,197.860489 
	C338.945068,194.569717 340.533783,193.675781 343.555298,193.888184 
	C348.623138,194.244446 353.500427,193.479813 357.973999,190.840607 
	C364.279816,187.120468 365.663330,182.061066 361.992767,174.861450 
	C353.391510,184.501511 343.553436,190.009109 331.084381,182.379913 
	C323.639648,177.824860 320.506287,168.209656 322.964996,160.092117 
	C325.828400,150.638184 334.125610,146.012848 349.497406,145.520599 
	C347.963623,141.883636 350.130646,140.441193 353.106323,139.529053 
	C356.986816,138.339569 356.908936,141.877090 357.949799,143.787323 
	C359.376190,146.405075 360.388123,149.248672 361.747620,152.334808 
M335.355499,175.254288 
	C336.526123,175.879822 337.639679,176.666885 338.876862,177.104141 
	C345.876801,179.578156 354.854645,175.039108 356.562012,168.231033 
	C358.373779,161.006805 353.715179,153.760208 346.451294,152.503540 
	C341.770935,151.693802 334.982727,154.989075 332.327118,159.360016 
	C329.218719,164.476227 329.914795,168.845245 335.355499,175.254288 
z"/>
<path fill="#000000" opacity="1.000000" stroke="none" 
	d="
M888.546326,703.473938 
	C884.481445,699.995300 880.762756,696.652771 876.860352,693.540527 
	C874.691589,691.810852 874.274353,689.992981 875.128540,687.431519 
	C875.971985,684.902283 877.295898,683.525452 880.114380,683.550842 
	C888.749573,683.628540 897.385925,683.579163 907.239685,683.579163 
	C903.296753,678.255493 899.025024,675.453186 895.299194,672.100464 
	C892.329590,669.428223 889.318359,666.801636 886.298523,664.185974 
	C884.428894,662.566711 884.835449,660.737366 885.522400,658.726746 
	C886.219543,656.686096 887.143127,654.984314 889.569397,654.979126 
	C902.853271,654.950989 916.137207,654.965698 929.397705,654.965698 
	C929.692871,661.030457 928.670837,662.276733 923.449219,662.315796 
	C916.289490,662.369263 909.129028,662.324036 901.969177,662.362976 
	C900.375732,662.371643 898.783203,662.554688 895.815857,662.746094 
	C903.276306,669.239563 909.766785,674.853882 916.211792,680.519836 
	C918.118103,682.195679 920.681396,683.360291 919.441589,686.963379 
	C918.148804,690.720581 915.433655,690.913940 912.328003,690.910095 
	C903.681213,690.899597 895.034424,690.906433 885.104004,690.906433 
	C892.859131,697.495850 899.675110,703.469666 906.701782,709.184631 
	C910.483032,712.260010 910.137939,715.071960 906.812073,718.778748 
	C900.712402,713.670044 894.764099,708.688110 888.546326,703.473938 
z"/>
<path fill="#000000" opacity="1.000000" stroke="none" 
	d="
M302.993225,906.836243 
	C303.168457,903.404541 303.798187,900.481689 305.051086,897.729065 
	C308.545441,890.051819 314.161774,884.713806 322.811584,884.292603 
	C331.183289,883.884827 338.009094,887.405273 342.394226,894.901367 
	C342.725555,895.467773 343.120941,895.996826 343.744568,896.928772 
	C345.824402,893.154968 348.394257,894.363586 350.938385,895.978821 
	C354.121948,898.000122 351.742188,900.089172 350.800598,901.949280 
	C343.730957,915.914429 336.493988,929.795288 329.494812,943.795288 
	C327.939697,946.905762 326.525024,948.121887 323.025360,946.323303 
	C319.283722,944.400330 320.729004,942.247192 321.985779,939.803772 
	C324.104218,935.685120 326.172180,931.540527 328.580536,926.775330 
	C314.381317,927.011780 305.478516,921.139893 302.993225,906.836243 
M320.817505,893.079102 
	C318.402008,893.975708 316.507477,895.590576 315.021179,897.620911 
	C311.689331,902.172607 310.112244,906.997803 313.109100,912.405518 
	C315.575897,916.856812 321.301849,920.058777 325.907196,919.514099 
	C331.377167,918.867188 336.113251,914.438171 337.547516,908.628662 
	C340.015015,898.634033 332.462891,891.166138 320.817505,893.079102 
z"/>
<path fill="#000000" opacity="1.000000" stroke="none" 
	d="
M770.093018,845.115601 
	C768.190552,846.430237 767.188721,848.661560 765.028015,848.662537 
	C763.224304,848.663330 762.311462,846.910034 761.397644,845.541931 
	C760.082764,843.573181 761.663391,842.476807 762.868042,841.375854 
	C770.733521,834.187317 778.657837,827.062622 786.479736,819.827209 
	C788.557800,817.904968 790.042053,818.133301 791.872742,820.167786 
	C802.229919,831.678711 812.643494,843.139160 823.101257,854.558777 
	C824.939514,856.566040 825.023438,858.090149 822.921021,859.976135 
	C815.114258,866.979187 807.377991,874.061462 799.666504,881.169617 
	C797.766113,882.921326 796.343994,882.750427 794.655762,880.827881 
	C792.799377,878.713989 792.389526,877.100769 794.795959,874.994446 
	C801.044250,869.525330 807.117126,863.855896 813.440918,858.101685 
	C810.883667,853.566101 807.317993,850.410461 803.731506,846.541504 
	C798.356384,851.414062 793.200073,856.048645 788.093201,860.737122 
	C786.088928,862.577271 784.455750,864.728455 781.566345,861.607361 
	C778.716553,858.529114 780.789062,857.061646 782.886414,855.205688 
	C787.125366,851.454407 791.226868,847.547302 795.481079,843.813965 
	C797.823914,841.757874 798.185486,839.917480 795.824585,837.581848 
	C793.240906,835.025757 790.876160,832.248413 788.014587,829.130188 
	C781.949585,834.547546 776.158813,839.719910 770.093018,845.115601 
z"/>
<path fill="#000000" opacity="1.000000" stroke="none" 
	d="
M116.577118,676.721497 
	C114.279671,677.396973 112.386734,678.049805 110.443001,678.464722 
	C108.217651,678.939697 105.613411,681.086365 103.965820,677.658630 
	C102.653694,674.928650 102.210052,672.203125 106.031593,670.903015 
	C96.766319,660.884399 94.947220,649.883362 100.900543,641.382935 
	C106.406898,633.520752 118.510483,630.118408 127.213745,633.986267 
	C136.867554,638.276489 141.044525,648.474304 138.149597,661.358521 
	C143.046326,660.835510 147.448166,659.021667 151.925598,657.634583 
	C154.925446,656.705139 156.474503,657.292603 157.420929,660.479553 
	C158.376968,663.698853 157.268402,665.053650 154.321121,665.885498 
	C141.852890,669.404419 129.410812,673.016052 116.577118,676.721497 
M117.743759,641.123657 
	C109.053955,642.518005 104.440414,647.823120 105.214622,655.530945 
	C105.916931,662.522949 111.374367,667.138428 118.609398,666.859314 
	C126.282761,666.563171 132.522781,660.628174 132.371094,653.770264 
	C132.204865,646.255127 127.087662,641.537720 117.743759,641.123657 
z"/>
<path fill="#000000" opacity="1.000000" stroke="none" 
	d="
M807.427246,279.232422 
	C802.421875,280.209747 802.020935,276.103394 799.430359,273.566498 
	C805.536316,270.591614 811.462891,269.618927 817.168701,268.071533 
	C828.574890,264.978302 840.078491,262.245514 851.503601,259.219635 
	C854.509888,258.423401 856.722107,258.515594 859.001343,261.161743 
	C861.370850,263.912750 860.709290,266.059448 859.324219,268.789581 
	C852.014099,283.198059 844.828552,297.669678 837.589661,312.114319 
	C836.861694,313.566986 836.380859,315.228210 834.780823,316.013916 
	C829.271057,312.002411 828.456543,310.582550 831.828308,305.462616 
	C835.744263,299.516510 835.077515,294.959747 830.016418,290.367554 
	C828.189331,288.709778 826.867493,286.499573 825.288330,284.563354 
	C818.306335,276.003204 818.302795,276.006073 807.427246,279.232422 
M827.211365,275.080597 
	C830.731323,280.204285 834.585938,285.034882 839.251709,289.894897 
	C843.906494,282.569458 847.223083,275.541565 851.116272,267.230896 
	C842.218811,270.099701 834.321289,270.954559 827.211365,275.080597 
z"/>
<path fill="#000000" opacity="1.000000" stroke="none" 
	d="
M148.715668,343.180603 
	C164.066681,351.358521 167.784653,363.263855 159.618759,377.205414 
	C153.995132,386.806671 144.369080,390.748444 134.055191,386.683411 
	C124.165634,382.785675 114.662498,377.912842 104.952194,373.551697 
	C101.988686,372.220673 102.205963,370.416565 103.424263,367.928802 
	C104.648247,365.429504 105.912613,364.319580 108.818199,365.705902 
	C117.525864,369.860596 126.244011,374.016174 135.122940,377.782745 
	C144.410431,381.722626 151.456055,378.353119 154.766037,368.877747 
	C157.320908,361.563934 154.564926,355.698395 146.263321,351.578094 
	C138.068802,347.510986 129.761292,343.668365 121.456863,339.827759 
	C118.881668,338.636810 117.932014,337.248291 119.226204,334.387360 
	C120.615082,331.317139 122.190811,330.494171 125.391045,332.095703 
	C132.976776,335.891998 140.711060,339.391510 148.715668,343.180603 
z"/>
<path fill="#000000" opacity="1.000000" stroke="none" 
	d="
M94.949402,480.889587 
	C99.823830,481.581970 104.253525,482.590515 108.709679,482.725494 
	C116.347130,482.956818 120.299324,479.169983 122.070877,470.762604 
	C123.501671,463.972412 120.890900,458.593903 114.426163,455.803253 
	C107.621849,452.865997 100.133598,452.914032 93.007629,451.344482 
	C89.440224,450.558746 85.825905,449.951172 82.207672,449.441467 
	C79.027061,448.993408 78.606720,447.174591 79.138969,444.452393 
	C79.674881,441.711456 80.756233,440.422424 83.882568,441.030609 
	C92.849930,442.775146 101.898987,444.102905 110.858879,445.881866 
	C129.270569,449.537415 136.406708,467.260040 125.862907,482.967590 
	C120.493050,490.967346 112.394531,492.279175 103.767685,491.135712 
	C94.548920,489.913788 85.438950,487.888611 76.235260,486.526367 
	C72.820427,486.020966 72.280243,484.432922 72.682617,481.466217 
	C73.126602,478.192719 74.800446,477.313782 77.844986,477.889069 
	C83.388397,478.936554 88.957932,479.845795 94.949402,480.889587 
z"/>
<path fill="#000000" opacity="1.000000" stroke="none" 
	d="
M933.043884,527.729004 
	C931.472595,532.903259 930.261658,537.843079 925.422791,540.578918 
	C918.244141,544.637573 909.398804,541.873779 905.631775,533.949585 
	C900.880920,523.955811 901.767944,513.861511 906.463867,504.079956 
	C908.220703,500.420441 909.500854,500.507629 914.893860,503.966949 
	C912.088989,509.694611 909.600891,515.628174 910.244934,522.333801 
	C910.486450,524.848267 910.795776,527.309570 911.936646,529.567505 
	C913.229492,532.126282 915.251404,533.658936 918.260803,533.681519 
	C921.278076,533.704102 922.620178,531.708862 923.752014,529.352112 
	C925.435669,525.846313 925.840942,522.008240 926.654785,518.283691 
	C927.438660,514.696228 928.225708,511.112671 929.987366,507.867584 
	C934.728882,499.133881 946.801208,498.085785 953.096558,505.815063 
	C958.867004,512.899658 959.909241,527.802734 955.446655,535.759949 
	C953.829102,538.644104 951.899658,538.144531 949.589111,537.219849 
	C946.928345,536.155029 947.454895,534.362244 948.303772,532.320129 
	C950.528870,526.967529 951.467224,521.479431 949.570129,515.800964 
	C948.399536,512.297363 946.673401,509.357758 942.388428,509.305969 
	C938.416992,509.257935 936.876831,512.054626 935.992188,515.219788 
	C934.876648,519.211365 934.087646,523.294189 933.043884,527.729004 
z"/>
<path fill="#000000" opacity="1.000000" stroke="none" 
	d="
M155.069489,309.760132 
	C157.015350,308.026459 155.669113,306.499939 155.147781,305.070496 
	C153.552704,300.697266 151.989716,296.293243 150.042679,292.072571 
	C147.858475,287.337799 149.229599,283.847595 153.205444,280.541992 
	C156.134262,283.681061 156.526154,287.792816 158.177811,291.278778 
	C158.957291,292.923950 159.446930,294.705780 160.079239,296.421509 
	C165.182037,310.267548 165.195221,310.359955 179.999481,308.388245 
	C185.957001,307.594757 191.884491,307.813721 197.897690,307.602356 
	C196.880722,314.073914 194.793427,316.150299 188.981689,316.204163 
	C182.336777,316.265778 175.739700,316.684357 169.032700,317.643097 
	C168.320694,320.835938 170.159058,323.189087 171.102402,325.743073 
	C172.484726,329.485596 173.616226,333.370575 175.448334,336.885345 
	C178.090576,341.954285 175.812744,345.269775 172.528091,348.513947 
	C170.440353,347.993164 170.322617,346.329437 169.807678,344.987396 
	C167.068771,337.849304 164.126984,330.777100 161.720566,323.527710 
	C160.208435,318.972351 157.498306,317.937683 153.066681,318.357117 
	C145.018677,319.118835 136.925308,319.401062 128.273743,319.917908 
	C129.485687,314.839722 131.402054,311.750122 136.350082,311.145142 
	C142.463654,310.397614 148.682297,311.368378 155.069489,309.760132 
z"/>
<path fill="#000000" opacity="1.000000" stroke="none" 
	d="
M592.994324,922.796570 
	C605.805115,923.523560 613.962219,931.824097 614.207764,943.926147 
	C614.429688,954.866455 606.465027,963.419373 594.785889,964.782410 
	C585.104248,965.912354 575.381592,958.487305 573.667908,948.861450 
	C573.093079,945.632080 574.313599,944.312317 577.344299,943.739014 
	C586.143433,942.074463 594.913269,940.255249 603.707397,938.494019 
	C602.511353,933.655212 598.752441,930.725891 593.547058,930.412903 
	C588.467712,930.107544 583.978455,931.588989 580.488525,935.399536 
	C578.658752,937.397522 577.139099,936.853699 575.362183,935.393555 
	C573.275940,933.679260 573.652832,932.038452 575.217346,930.296814 
	C579.845398,925.144592 585.753967,922.949280 592.994324,922.796570 
M605.554382,946.746582 
	C605.264526,946.362244 604.951721,945.627502 604.688110,945.644775 
	C597.158386,946.137390 589.829773,947.589600 582.527161,949.848694 
	C585.238586,955.482910 589.059326,957.798462 594.198059,957.345032 
	C600.486206,956.790283 603.733643,953.977844 605.554382,946.746582 
z"/>
<path fill="#000000" opacity="1.000000" stroke="none" 
	d="
M827.680237,800.711548 
	C832.088074,795.092102 836.283447,789.760437 840.484009,784.422180 
	C836.234497,781.299438 831.446960,781.569397 827.119019,784.990417 
	C823.275391,788.028625 821.103516,792.108093 820.589111,796.914734 
	C820.317749,799.450134 819.310974,800.400024 816.820679,800.324707 
	C814.121338,800.243042 813.547668,798.692993 813.464783,796.409546 
	C813.096924,786.277527 823.389282,774.977478 833.926086,774.015625 
	C844.877991,773.015930 855.099304,781.464844 856.980713,793.072510 
	C858.545593,802.727539 850.979187,813.282043 840.710815,815.679565 
	C834.804810,817.058411 829.572266,815.255371 824.645935,812.100098 
	C821.812744,810.285461 821.232422,808.284668 823.733154,805.667358 
	C825.104492,804.232117 826.230835,802.562927 827.680237,800.711548 
M843.897400,790.559814 
	C839.774719,795.823181 835.652039,801.086609 831.416870,806.493713 
	C837.149292,809.182373 841.815063,808.492798 845.433716,804.983887 
	C849.249268,801.284119 850.556885,795.656433 848.518555,791.334717 
	C847.635742,789.462952 846.686218,787.327942 843.897400,790.559814 
z"/>
<path fill="#000000" opacity="1.000000" stroke="none" 
	d="
M377.413940,914.488037 
	C373.100922,912.001831 368.995483,910.414001 364.307953,912.169434 
	C361.894135,913.073303 360.599609,911.963074 359.837738,909.677795 
	C359.049652,907.313721 359.796509,906.013794 362.066284,905.035095 
	C371.192841,901.100098 386.046112,907.908936 390.268860,918.065674 
	C394.567291,928.404419 388.830902,941.702148 378.325897,945.750977 
	C367.540192,949.908020 355.138611,944.289734 351.493805,933.522888 
	C350.970551,931.977295 350.690308,930.300415 350.594879,928.666870 
	C349.915955,917.045532 351.810791,915.665894 362.477112,919.680786 
	C369.114838,922.179321 375.811523,924.521240 383.186829,927.188477 
	C383.960144,921.188049 381.602661,917.611694 377.413940,914.488037 
M372.056244,939.622681 
	C375.525787,938.843079 378.658203,937.587280 380.628479,933.401367 
	C373.346100,930.314575 366.238373,927.710327 358.810242,925.500122 
	C357.660248,934.288147 361.929413,938.840149 372.056244,939.622681 
z"/>
<path fill="#000000" opacity="1.000000" stroke="none" 
	d="
M725.050964,204.189148 
	C727.927185,205.872864 730.730591,206.220947 733.590454,206.034210 
	C736.544556,205.841324 737.242126,207.462738 737.408508,210.001602 
	C737.569458,212.458313 736.314453,213.143478 734.220825,213.502090 
	C724.400818,215.183990 712.083069,206.395096 709.532654,195.808182 
	C707.103271,185.723557 713.807861,174.327744 724.099548,171.048904 
	C734.027893,167.885818 745.690674,173.568802 749.421875,183.443283 
	C751.686646,189.436859 750.777283,195.175201 747.964539,200.790665 
	C746.518677,203.677155 744.882019,204.180252 742.075806,202.349411 
	C736.078491,198.436554 729.914917,194.778351 723.812378,191.027176 
	C722.136902,189.997238 720.436646,189.007523 718.714783,187.979691 
	C715.772705,194.391968 717.641174,199.129776 725.050964,204.189148 
M730.509216,177.493774 
	C727.383057,177.953781 724.353821,178.589600 722.274719,182.125107 
	C728.491394,186.591248 734.653503,190.732864 741.578613,193.845352 
	C744.629944,185.375351 741.164368,180.202423 730.509216,177.493774 
z"/>
<path fill="#000000" opacity="1.000000" stroke="none" 
	d="
M274.827606,230.631409 
	C268.938293,238.395477 261.804504,243.325974 252.057022,241.680496 
	C242.327896,240.038086 236.788086,233.442932 234.485428,224.119797 
	C232.366257,215.539642 237.737625,205.832062 246.560425,201.810715 
	C254.903427,198.008041 265.556641,200.791443 270.756592,207.855576 
	C272.886597,210.749252 270.980652,212.063232 269.177094,213.539078 
	C263.517181,218.170517 257.802551,222.734985 252.131256,227.352570 
	C250.874298,228.375977 249.249802,229.083939 248.801743,230.867569 
	C253.446838,237.302505 266.209534,233.001404 269.662201,224.290802 
	C270.205933,222.919037 270.521027,221.230057 271.518707,220.320587 
	C272.850281,219.106720 274.654175,219.854370 276.210571,220.543930 
	C277.738586,221.220932 277.812775,222.387878 277.552124,223.853058 
	C277.136139,226.191467 276.201202,228.292328 274.827606,230.631409 
M260.869385,211.738708 
	C261.928131,209.235641 259.733582,209.028366 258.387360,208.399094 
	C254.141617,206.414444 250.254059,207.572525 246.772446,210.228241 
	C243.225433,212.933823 241.642761,216.607742 242.162231,221.125214 
	C242.567154,224.646637 244.071136,225.625717 246.994934,223.257248 
	C251.498642,219.608978 255.960342,215.908844 260.869385,211.738708 
z"/>
<path fill="#000000" opacity="1.000000" stroke="none" 
	d="
M438.541565,115.224251 
	C450.164398,114.756912 457.785675,120.160950 460.702637,130.288925 
	C461.760437,133.961777 461.143555,135.849167 456.977325,136.451584 
	C449.909821,137.473541 442.908752,138.953156 435.877167,140.226257 
	C434.103699,140.547348 432.301392,140.761276 430.796448,141.806030 
	C433.755524,150.637680 445.087524,152.464035 452.983582,145.407242 
	C454.986420,143.617279 456.400208,142.568146 458.807800,144.723068 
	C460.711334,146.426819 460.896515,147.693390 459.241394,149.701813 
	C454.081329,155.963196 442.796417,158.972534 434.526947,156.103195 
	C425.765015,153.062958 420.571198,145.224838 420.667175,135.186890 
	C420.755096,125.988770 425.741852,119.234947 434.750214,116.166672 
	C435.848022,115.792747 436.999268,115.575539 438.541565,115.224251 
M439.733643,133.102097 
	C442.182434,132.634003 444.634369,132.181793 447.078918,131.692413 
	C448.802795,131.347321 451.141724,131.620102 451.418823,129.244720 
	C451.649170,127.269638 450.031525,125.892921 448.461212,124.931381 
	C446.921722,123.988708 445.257172,123.044556 443.523529,122.659927 
	C435.562469,120.893700 428.360474,127.055023 430.115936,134.436478 
	C433.013428,134.064117 435.957153,133.685822 439.733643,133.102097 
z"/>
<path fill="#000000" opacity="1.000000" stroke="none" 
	d="
M553.681030,929.862061 
	C565.869385,934.396790 571.412598,945.612305 567.570190,957.255859 
	C564.158020,967.595642 553.242371,973.195923 542.221436,970.261047 
	C534.699219,968.257874 528.492859,960.691284 527.779053,952.807251 
	C527.541138,950.179749 528.297119,948.751221 531.174866,948.532654 
	C537.808533,948.028870 544.422791,947.273254 551.054871,946.744263 
	C553.711853,946.532349 556.351624,946.411316 558.838135,945.371094 
	C557.860962,939.905640 552.037231,935.827026 545.897827,936.547485 
	C542.606262,936.933838 539.201538,937.539978 536.745972,940.092529 
	C534.504822,942.422119 532.805481,941.750549 530.967896,939.626221 
	C528.882141,937.215088 530.379822,935.637024 532.140076,934.214844 
	C538.414734,929.145447 545.533447,927.909485 553.681030,929.862061 
M547.764282,953.348999 
	C544.197327,953.784790 540.630371,954.220642 537.026123,954.661011 
	C538.665955,961.343628 543.548096,964.572876 550.021057,963.590271 
	C556.246460,962.645264 559.935791,958.411621 559.479126,952.427246 
	C555.877502,952.727783 552.274170,953.028503 547.764282,953.348999 
z"/>
<path fill="#000000" opacity="1.000000" stroke="none" 
	d="
M179.751038,777.884766 
	C164.664886,787.315369 148.958710,780.645996 146.077560,763.935425 
	C144.883514,757.009888 150.099869,747.143921 156.295593,744.202271 
	C158.683533,743.068420 159.616333,744.379333 160.659943,746.016357 
	C164.598740,752.194641 168.526474,758.380371 172.530319,764.516357 
	C173.596588,766.150574 174.322113,768.093872 176.118744,769.165955 
	C183.016434,763.620300 180.436172,752.019348 171.247986,747.090027 
	C169.523697,746.165100 167.379730,745.759155 167.987503,742.916931 
	C168.821655,739.015991 170.952835,738.735596 174.202927,740.155151 
	C189.321396,746.758911 192.365341,766.138184 179.751038,777.884766 
M168.415771,769.823059 
	C164.946060,764.445557 161.476349,759.067993 157.947449,753.598755 
	C153.122879,758.106628 152.302521,762.141907 154.720139,767.372620 
	C157.068665,772.453796 161.487198,775.150879 166.555466,774.747375 
	C169.796051,774.489380 170.906052,773.315979 168.415771,769.823059 
z"/>
<path fill="#000000" opacity="1.000000" stroke="none" 
	d="
M128.827118,604.588745 
	C130.083923,618.128845 122.298180,627.683899 109.303459,629.093872 
	C98.224495,630.295959 88.514153,621.759827 87.039352,609.522156 
	C85.864708,599.775085 94.187096,589.623535 104.168640,588.312561 
	C107.236099,587.909607 107.911949,589.413330 108.318092,591.837280 
	C109.605537,599.521057 110.989441,607.188599 112.291199,614.870056 
	C112.539238,616.333740 112.482948,617.874146 113.932632,618.802368 
	C122.354752,615.289368 124.145096,604.793701 117.752716,596.657593 
	C116.772285,595.409729 115.076317,594.535583 115.609634,592.469849 
	C116.416962,589.342712 119.563187,588.346985 122.114532,590.551636 
	C126.253250,594.127808 127.805153,599.007690 128.827118,604.588745 
M94.658661,610.760315 
	C97.117119,618.214844 101.012985,621.200012 106.648964,619.535217 
	C104.894928,612.310425 104.874847,604.686218 102.098671,597.232239 
	C96.200493,600.052490 94.070343,604.284607 94.658661,610.760315 
z"/>
<path fill="#000000" opacity="1.000000" stroke="none" 
	d="
M858.653381,740.391357 
	C857.582947,739.842285 856.766846,739.558044 856.120972,739.055237 
	C854.560913,737.840759 851.488647,737.611511 852.456726,734.585938 
	C853.266296,732.055725 854.471191,729.540588 858.127686,730.046265 
	C857.904724,723.867310 859.581848,718.429932 863.539124,713.820374 
	C868.017212,708.604187 873.919922,707.304260 879.141357,710.304688 
	C884.415649,713.335510 886.390625,719.032532 884.161621,725.420898 
	C883.289307,727.920776 881.996033,730.276611 880.852722,732.678223 
	C879.784912,734.921143 878.661621,737.137695 877.591919,739.306519 
	C881.510986,742.678040 885.131836,742.483032 888.395691,738.722290 
	C891.477051,735.171875 892.709412,730.882324 892.677856,726.255127 
	C892.660461,723.704529 893.334106,722.048950 896.247009,722.047729 
	C899.275818,722.046509 900.387329,723.675720 900.283447,726.479309 
	C899.994080,734.286560 897.328064,741.218018 891.773499,746.673340 
	C887.794312,750.581421 882.731018,751.343933 877.377686,749.496094 
	C870.886414,747.255432 865.144348,743.477966 858.653381,740.391357 
M875.143433,729.596313 
	C876.208862,727.353638 877.663635,725.265747 877.715759,722.635742 
	C877.788208,718.980896 875.160034,716.684570 871.618164,717.360535 
	C868.287109,717.996277 864.406189,723.359741 864.498657,727.904724 
	C864.585144,732.155579 866.065552,735.713684 871.015869,736.326233 
	C872.943665,734.547241 873.640503,732.259216 875.143433,729.596313 
z"/>
<path fill="#000000" opacity="1.000000" stroke="none" 
	d="
M222.533661,807.517578 
	C233.197815,809.335144 241.906967,818.560974 242.326401,828.108154 
	C242.799026,838.866028 236.197937,847.681580 225.571304,850.484314 
	C216.917343,852.766724 207.371399,848.078369 202.735428,839.268616 
	C198.843002,831.871826 200.710098,821.415649 206.714371,815.745667 
	C208.894119,813.687378 210.379547,814.313965 212.151550,816.131653 
	C217.379837,821.494446 222.662872,826.804199 227.963669,832.095520 
	C229.119492,833.249207 230.074219,834.694641 231.769135,835.193665 
	C235.443436,831.248840 235.546143,827.059753 232.137314,821.822021 
	C229.652100,818.003418 226.198257,815.517151 221.741196,814.665527 
	C219.206650,814.181274 218.596619,812.788879 218.668182,810.460388 
	C218.742950,808.027649 219.873108,807.182556 222.533661,807.517578 
M208.289200,831.370605 
	C208.758896,837.395020 212.218338,841.023865 217.688034,842.971985 
	C221.291611,844.255371 224.345016,843.306519 226.159363,841.532288 
	C220.619873,836.011780 215.294556,830.704651 209.878052,825.306702 
	C208.642960,826.285278 208.308762,828.371399 208.289200,831.370605 
z"/>
<path fill="#000000" opacity="1.000000" stroke="none" 
	d="
M926.491516,546.985962 
	C945.307983,550.103149 948.996887,571.222290 939.698914,582.236511 
	C933.408691,589.687622 922.749146,591.859802 913.865479,587.524109 
	C905.201294,583.295593 900.955261,573.952148 902.968384,563.544617 
	C904.786499,554.145142 912.391602,547.463623 922.092102,546.803528 
	C923.409668,546.713806 924.743896,546.869446 926.491516,546.985962 
M925.904724,555.475525 
	C915.715820,555.050781 909.778809,560.046021 910.041504,568.822449 
	C910.288330,577.069153 916.666931,581.807495 926.135559,580.777893 
	C931.736694,580.168762 936.047668,576.008606 936.752502,570.532532 
	C937.734314,562.903137 934.755859,558.510010 925.904724,555.475525 
z"/>
<path fill="#000000" opacity="1.000000" stroke="none" 
	d="
M153.892273,713.653259 
	C146.972260,722.455933 137.884552,725.698792 129.189606,722.712402 
	C120.678261,719.789062 114.713081,711.077148 114.656929,701.488098 
	C114.601593,692.038269 120.178009,684.488892 129.220078,681.772583 
	C138.761276,678.906311 148.168640,682.125977 153.163498,690.257019 
	C157.739166,697.705566 158.798615,705.441772 153.892273,713.653259 
M136.822784,715.179504 
	C146.071762,712.580811 150.930481,706.301575 149.048599,699.379211 
	C146.979935,691.769714 141.193436,687.966858 133.694046,689.288086 
	C126.500595,690.555481 121.858353,696.004944 122.208313,702.771057 
	C122.594810,710.243896 127.986694,715.141968 136.822784,715.179504 
z"/>
<path fill="#000000" opacity="1.000000" stroke="none" 
	d="
M884.845703,408.389435 
	C870.566223,397.764343 871.142212,378.223419 885.619385,370.967316 
	C895.106018,366.212524 905.436829,368.298492 911.781250,376.249878 
	C918.092834,384.160156 918.443726,395.782623 912.592041,403.104279 
	C905.897888,411.479950 895.314880,413.594513 884.845703,408.389435 
M887.344666,379.703796 
	C881.758850,385.019348 880.615723,391.327759 884.195251,397.085266 
	C887.488098,402.381744 893.696899,404.338013 899.922302,402.040375 
	C906.609375,399.572388 909.825806,394.134583 908.727966,387.153870 
	C907.266663,377.862762 897.861450,374.300446 887.344666,379.703796 
z"/>
<path fill="#000000" opacity="1.000000" stroke="none" 
	d="
M767.282898,866.742676 
	C769.985657,870.565735 772.597717,874.021118 774.943848,877.648621 
	C776.069397,879.388977 778.655884,881.188721 775.842712,883.610718 
	C773.615417,885.528320 771.334961,887.165649 768.705627,883.601318 
	C766.686401,889.004578 763.721680,892.882568 759.316162,895.634766 
	C751.181641,900.716492 743.120911,899.550964 737.227295,891.960327 
	C732.743164,886.185059 728.715210,880.057678 724.379150,874.164246 
	C722.585999,871.727051 722.945740,870.084167 725.468140,868.460754 
	C727.735046,867.001770 729.443787,866.442688 731.267395,869.169983 
	C734.778931,874.421753 738.455688,879.568420 742.207031,884.653015 
	C746.483154,890.448730 751.274414,891.443115 756.832764,887.906616 
	C762.268372,884.448059 764.141479,878.451050 760.834045,872.817627 
	C757.559631,867.240112 753.632507,862.040833 749.903015,856.737976 
	C748.443420,854.662598 747.270874,853.009460 750.217163,851.012512 
	C752.842651,849.232788 754.713867,848.618713 756.772217,851.740845 
	C760.066101,856.736816 763.632080,861.553345 767.282898,866.742676 
z"/>
<path fill="#000000" opacity="1.000000" stroke="none" 
	d="
M375.507507,153.390778 
	C374.032928,148.382339 372.573059,143.782501 371.373383,139.115768 
	C370.851807,137.086792 368.714417,134.540268 371.751434,132.963043 
	C374.207153,131.687714 377.129333,130.283340 378.919189,134.433853 
	C382.894745,130.171783 387.015900,127.553734 392.021240,126.297661 
	C399.631653,124.387871 406.635773,127.103119 410.153076,134.068161 
	C414.075317,141.835083 415.487488,150.478531 418.017487,158.730560 
	C418.949127,161.769333 416.366119,162.238464 414.322632,162.923935 
	C411.840729,163.756500 410.599884,162.567673 409.931000,160.290909 
	C408.244324,154.549652 406.576691,148.801300 404.775238,143.095642 
	C402.324066,135.331955 397.806793,132.612274 391.027679,134.661179 
	C384.331848,136.684891 381.282959,142.315079 383.235535,149.523285 
	C384.797577,155.289688 386.552734,161.008804 388.403381,166.689850 
	C389.313690,169.484253 388.719604,170.946960 385.778046,171.844482 
	C382.779724,172.759308 381.113647,172.257217 380.242340,169.041595 
	C378.852295,163.911667 377.180450,158.858093 375.507507,153.390778 
z"/>
<path fill="#000000" opacity="1.000000" stroke="none" 
	d="
M649.465576,906.648193 
	C652.777771,905.864075 653.050476,908.186584 653.654907,910.026733 
	C656.920349,919.967834 660.157288,929.918335 663.385864,939.871521 
	C664.093018,942.051697 665.350586,944.384644 662.321106,945.900146 
	C659.691284,947.215759 657.222290,947.599487 655.642456,943.912170 
	C651.947327,948.601746 647.566162,951.369812 642.209351,952.698242 
	C634.803406,954.534912 628.006775,951.922974 624.483704,945.104492 
	C620.501221,937.396851 618.304565,928.952515 616.038025,920.653992 
	C614.694763,915.736267 619.783691,917.098328 622.838318,915.693848 
	C625.427124,923.234497 627.717896,930.486145 630.408508,937.586304 
	C633.290955,945.192505 640.236328,947.185730 646.861267,942.565491 
	C651.200012,939.539673 652.644409,935.360474 651.204224,930.339111 
	C649.554993,924.588379 647.823486,918.851807 645.844055,913.208618 
	C644.600830,909.664368 645.106934,907.429504 649.465576,906.648193 
z"/>
<path fill="#000000" opacity="1.000000" stroke="none" 
	d="
M279.020752,177.851776 
	C282.100677,176.083374 284.980988,174.763351 288.091553,174.069565 
	C290.253479,173.587387 292.589081,173.138031 293.127045,176.319000 
	C293.586487,179.035873 293.419128,181.146072 289.718750,181.492737 
	C285.819824,181.858032 282.437897,183.920288 279.585632,186.538620 
	C277.813660,188.165268 275.538513,190.118988 277.024536,192.922638 
	C278.494385,195.695740 281.288940,195.046738 283.731842,194.466232 
	C285.338715,194.084412 286.851074,193.314651 288.418030,192.752899 
	C290.925293,191.854050 293.398438,190.815048 295.966064,190.139755 
	C300.100098,189.052505 303.946259,189.567322 306.847137,193.121033 
	C309.750702,196.678040 310.150421,200.716690 308.572327,204.878265 
	C305.796173,212.199387 292.783386,220.254669 285.127258,219.691299 
	C282.647156,219.508804 282.186188,217.988266 281.978485,216.019485 
	C281.727020,213.635788 282.564545,212.167267 285.109558,211.885345 
	C289.323578,211.418518 293.227295,210.011414 296.700378,207.590759 
	C298.048767,206.650970 299.256134,205.449493 300.337738,204.202454 
	C301.479553,202.886002 302.052216,201.313171 301.021637,199.608353 
	C299.912903,197.774094 298.234894,197.209045 296.291840,197.903549 
	C292.691437,199.190475 289.157898,200.663269 285.571533,201.991104 
	C278.566437,204.584717 273.700500,203.483917 270.448212,198.631973 
	C267.178314,193.753769 268.201172,187.271774 273.211334,182.336273 
	C274.857147,180.714951 276.856842,179.452881 279.020752,177.851776 
z"/>
<path fill="#000000" opacity="1.000000" stroke="none" 
	d="
M849.427368,321.688660 
	C849.129456,330.424805 851.374207,334.171295 858.869507,336.994934 
	C861.959167,338.158844 862.577576,340.229797 861.810303,342.873810 
	C860.925598,345.922485 858.443787,344.923584 856.395386,344.424438 
	C849.011414,342.625061 842.255981,334.152252 841.658997,326.049164 
	C840.889587,315.605377 845.668335,307.705231 855.068665,303.880432 
	C863.044983,300.635040 872.843628,303.193359 878.479431,310.319031 
	C882.615906,315.549072 885.446350,321.336182 883.473389,328.318848 
	C883.005249,329.975677 882.813904,332.353271 880.117493,331.573181 
	C878.080444,330.983765 875.851868,330.262573 875.799622,327.451294 
	C875.790405,326.952515 875.770081,326.443695 875.849854,325.955017 
	C877.243347,317.413574 870.609985,311.913727 865.159119,310.812531 
	C859.118896,309.592316 852.518860,313.973724 849.427368,321.688660 
z"/>
<path fill="#000000" opacity="1.000000" stroke="none" 
	d="
M931.453491,610.687195 
	C922.697876,607.081665 913.495850,606.896301 904.588684,605.174744 
	C901.385437,604.555542 897.664307,604.562439 899.399048,599.190918 
	C900.293213,596.422302 901.406128,595.926331 904.021301,596.390381 
	C911.871826,597.783508 919.779297,598.855713 927.629700,600.249390 
	C930.837341,600.818848 933.632935,601.295288 934.444946,597.017517 
	C934.787598,595.212341 936.129211,594.679321 937.833801,594.927490 
	C939.600891,595.184753 941.390991,595.830566 941.129761,597.903625 
	C940.652649,601.690430 942.870056,602.486938 945.830139,603.474854 
	C954.513672,606.373169 957.612244,615.085815 953.128418,623.280945 
	C952.155640,625.059021 951.177734,627.008240 948.563049,625.609192 
	C946.429504,624.467529 945.471680,623.197327 946.521606,620.425476 
	C949.025391,613.815979 947.018860,611.287964 939.534119,611.353638 
	C939.122986,613.369324 938.565308,615.443176 938.302490,617.553711 
	C937.947632,620.404236 936.620361,621.727234 933.655457,621.287109 
	C930.544373,620.825317 930.665222,618.841064 931.091187,616.479187 
	C931.412170,614.699280 931.436218,612.865784 931.453491,610.687195 
z"/>
<path fill="#000000" opacity="1.000000" stroke="none" 
	d="
M198.719589,791.259583 
	C189.907562,793.557251 181.307251,795.553101 172.883987,798.128052 
	C168.159439,799.572327 165.609756,798.115601 164.069672,793.865417 
	C164.518906,792.156311 165.956497,792.039368 167.194733,791.701538 
	C178.750458,788.548950 190.334518,785.497009 201.856064,782.224731 
	C204.806793,781.386658 206.842117,781.715027 208.788757,784.275208 
	C210.641968,786.712463 210.887375,788.684387 209.362534,791.462952 
	C203.675079,801.826599 198.260574,812.339966 192.712311,822.780457 
	C192.106613,823.920288 191.298157,824.952454 190.596970,826.014526 
	C185.093109,822.857666 184.547913,821.190613 187.228729,816.122925 
	C191.433502,808.174561 195.664673,800.240173 199.865601,792.289795 
	C200.000305,792.034912 200.058655,791.558533 199.913818,791.386230 
	C199.757767,791.200684 199.320129,791.251953 198.719589,791.259583 
z"/>
<path fill="#000000" opacity="1.000000" stroke="none" 
	d="
M685.567993,189.077271 
	C682.717590,184.458267 683.356567,180.184433 685.430969,175.921936 
	C688.265808,170.096634 691.107605,164.274704 693.926208,158.441528 
	C694.058960,158.166626 693.995544,157.796921 694.025757,157.464340 
	C693.624268,156.185577 692.390320,155.874496 691.415283,155.323425 
	C689.379639,154.172791 689.211060,152.662567 690.187073,150.709793 
	C691.142029,148.799301 692.489685,147.741333 694.560669,148.815155 
	C697.298279,150.234604 698.917175,149.399612 699.953125,146.674332 
	C701.024658,143.855331 702.610962,142.858139 705.701721,144.433746 
	C708.648010,145.935715 709.237244,147.652847 707.518005,150.316223 
	C705.518860,153.413132 706.786133,155.203125 709.831970,156.378204 
	C710.758179,156.735535 711.618042,157.262894 712.515503,157.697372 
	C714.539978,158.677460 715.796082,159.857681 714.458130,162.357651 
	C713.245178,164.624222 711.970032,165.429245 709.319519,164.286438 
	C702.130249,161.186691 702.074646,161.299088 698.665344,168.106323 
	C696.804382,171.821869 694.835510,175.490906 693.152832,179.286209 
	C691.018005,184.101334 692.308228,187.202621 697.320923,188.330231 
	C700.380737,189.018539 701.896851,190.165985 701.150269,193.267471 
	C700.309448,196.760284 697.455933,195.502045 695.407532,195.172028 
	C691.519226,194.545532 688.289246,192.506149 685.567993,189.077271 
z"/>
<path fill="#000000" opacity="1.000000" stroke="none" 
	d="
M930.539429,648.234619 
	C925.798706,648.682983 923.918030,647.034058 925.427795,642.451233 
	C925.987610,640.751831 926.055115,638.890137 926.419250,636.660645 
	C919.118652,634.103027 911.689026,632.454834 904.188171,631.506592 
	C900.135071,630.994141 898.681152,634.149658 898.787781,641.297241 
	C893.277588,643.721619 891.691528,642.688782 891.694885,636.678589 
	C891.700439,626.759338 898.424194,621.317810 908.114258,623.409363 
	C913.630432,624.600037 919.166565,625.714417 924.640747,627.075989 
	C927.394958,627.761108 929.178345,627.439636 929.721130,624.298157 
	C930.146179,621.838318 931.692383,621.622253 933.813599,622.314697 
	C935.652161,622.914917 937.491394,623.288391 936.650757,625.915283 
	C935.643372,629.063416 937.507874,630.187500 940.110596,630.606323 
	C943.241516,631.110107 944.205322,632.593262 943.499451,635.816650 
	C942.742065,639.274780 940.920044,639.646057 938.070007,638.719727 
	C935.079651,637.747742 933.457275,638.686096 932.885925,641.975159 
	C932.527893,644.036011 932.392639,646.316223 930.539429,648.234619 
z"/>
<path fill="#000000" opacity="1.000000" stroke="none" 
	d="
M904.045776,337.063568 
	C907.103271,343.218781 899.885803,341.999359 898.823914,345.470917 
	C899.069336,347.662781 900.559082,349.733459 901.664246,351.928864 
	C902.796753,354.178558 902.441528,355.583832 900.132812,356.753418 
	C897.839966,357.914917 896.618896,357.328491 895.340881,355.165375 
	C891.265991,348.268250 891.186401,348.322662 884.239990,351.907227 
	C880.692749,353.737701 877.091431,355.467804 873.588623,357.378998 
	C868.677673,360.058502 867.882019,363.198120 871.354004,367.421021 
	C873.064331,369.501251 874.167603,371.014954 871.717651,373.217590 
	C869.018982,375.643860 867.477966,373.480865 865.929749,371.844482 
	C858.835510,364.346558 860.365234,354.924835 869.447998,350.033325 
	C875.289795,346.887207 881.175293,343.822144 886.915222,340.787384 
	C887.681946,338.068390 883.621155,335.173523 887.705078,333.079865 
	C889.465271,332.177399 891.218872,331.346588 892.303284,333.718994 
	C893.761292,336.908539 895.825439,336.686615 898.327393,335.188080 
	C900.703491,333.764923 902.723816,333.709961 904.045776,337.063568 
z"/>
<path fill="#000000" opacity="1.000000" stroke="none" 
	d="
M98.210785,390.819244 
	C95.469933,388.612732 93.148598,386.413116 90.516312,384.688049 
	C86.353836,381.960236 86.806297,378.994476 89.292603,375.656036 
	C91.441025,375.361664 92.536545,376.800873 93.794624,377.801910 
	C111.118256,391.586243 128.358932,405.475983 145.776550,419.140259 
	C149.715103,422.230072 149.142883,424.975037 146.234955,428.945496 
	C130.182800,416.200867 114.336815,403.619934 98.210785,390.819244 
z"/>
<path fill="#000000" opacity="1.000000" stroke="none" 
	d="
M130.606613,738.557373 
	C140.930237,733.077271 150.900040,727.721863 160.917480,722.457214 
	C167.044495,719.237244 167.355392,719.424255 169.794769,726.444519 
	C168.982880,728.055542 167.327896,728.578430 165.882263,729.344055 
	C151.912003,736.743042 137.907913,744.078552 123.974472,751.545959 
	C121.431282,752.908875 119.646049,753.572571 117.954185,750.328918 
	C116.310707,747.177979 117.129364,745.473206 120.100159,744.044983 
	C123.547546,742.387634 126.886734,740.505127 130.606613,738.557373 
z"/>
<path fill="#000000" opacity="1.000000" stroke="none" 
	d="
M756.718323,203.737030 
	C758.917297,200.790359 760.768433,198.015808 762.921936,195.500076 
	C764.245605,193.953751 764.797424,190.540329 768.033081,192.241196 
	C770.685791,193.635620 773.813904,195.141754 770.711792,199.408005 
	C775.055115,199.628052 778.569153,200.370789 781.738281,202.327820 
	C783.589417,203.470932 784.535828,204.828964 782.908997,206.724686 
	C781.629395,208.215805 780.942261,210.602509 777.860840,209.315079 
	C768.140320,205.253723 765.417908,206.130524 759.053406,214.632645 
	C756.268250,218.353287 753.301758,221.945663 750.661926,225.765167 
	C748.663940,228.655991 746.874573,228.085693 744.506104,226.297272 
	C742.148071,224.516785 741.793823,223.019669 743.749329,220.599976 
	C748.130310,215.178970 752.263794,209.557968 756.718323,203.737030 
z"/>
<path fill="#000000" opacity="1.000000" stroke="none" 
	d="
M872.047852,761.904358 
	C873.461304,762.835144 874.678894,763.447449 875.662048,764.323059 
	C877.221497,765.711975 880.687622,765.976685 879.412781,769.203979 
	C878.303589,772.011780 876.638733,774.707031 872.609619,773.051208 
	C872.322144,776.895569 872.269104,780.413269 870.486206,783.556824 
	C869.632874,785.061157 868.723755,786.758423 866.703613,785.466675 
	C864.916809,784.324280 862.271729,783.771606 863.158813,780.383667 
	C866.089905,769.189697 865.489502,767.877869 855.883362,761.692261 
	C852.387634,759.441223 848.971313,757.065857 845.458313,754.842773 
	C843.009705,753.293274 841.181763,752.030090 843.433960,748.621277 
	C845.755310,745.107666 847.766296,746.155762 850.383972,747.881409 
	C857.465088,752.549377 864.620728,757.104309 872.047852,761.904358 
z"/>
<path fill="#000000" opacity="1.000000" stroke="none" 
	d="
M90.153679,561.860474 
	C92.485641,569.138977 96.591095,571.905396 103.604836,571.361816 
	C109.061508,570.938965 114.529442,570.659363 119.984581,570.219543 
	C122.184715,570.042175 124.111526,570.111938 124.267754,572.925171 
	C124.403824,575.375305 124.965622,578.189209 121.194145,578.498596 
	C114.582817,579.040894 107.969147,579.555359 101.355003,580.062317 
	C97.385460,580.366516 93.416458,580.704285 89.440849,580.892639 
	C87.066811,581.005127 84.307426,581.863586 83.370338,578.308228 
	C82.550438,575.197510 83.452919,573.127136 87.300148,572.325195 
	C85.007660,569.678589 83.268799,567.268860 82.588875,564.324463 
	C82.083565,562.136230 80.727509,559.671509 84.069313,558.508545 
	C87.015358,557.483215 89.337631,557.927917 90.153679,561.860474 
z"/>
<path fill="#000000" opacity="1.000000" stroke="none" 
	d="
M121.851669,434.269867 
	C110.735802,431.160889 100.016594,428.145752 89.293633,425.144073 
	C86.532349,424.371155 84.385818,423.577911 85.553398,419.713318 
	C86.665207,416.033264 88.404884,415.586151 91.790390,416.581543 
	C105.982315,420.754242 120.226501,424.751587 134.480942,428.707245 
	C137.484283,429.540710 139.179794,430.626343 138.164398,434.237335 
	C137.201691,437.661041 135.466217,438.292877 132.323135,437.223480 
	C129.022690,436.100555 125.610367,435.306458 121.851669,434.269867 
z"/>
<path fill="#000000" opacity="1.000000" stroke="none" 
	d="
M519.213135,962.938721 
	C519.199829,964.594849 519.248108,965.764526 519.165161,966.924927 
	C519.005920,969.154114 519.642395,971.909607 516.155823,972.218079 
	C513.232483,972.476624 510.280182,972.665588 510.399658,968.093506 
	C506.924042,970.120728 503.909515,971.904907 500.352264,972.219238 
	C498.455780,972.386780 496.460236,972.374390 496.305084,969.774963 
	C496.178558,967.654419 495.975128,965.563721 498.745422,964.468506 
	C510.402161,959.860107 510.662811,959.360168 510.677948,946.746338 
	C510.682556,942.916748 510.828735,939.084167 510.718689,935.258484 
	C510.628296,932.116089 511.823090,930.712524 515.093506,930.757019 
	C518.438171,930.802673 519.355896,932.456543 519.319824,935.474121 
	C519.212158,944.464600 519.240356,953.456665 519.213135,962.938721 
z"/>
<path fill="#000000" opacity="1.000000" stroke="none" 
	d="
M469.580872,129.389374 
	C469.156097,124.800209 468.836334,120.663536 468.358032,116.545265 
	C468.070435,114.069115 467.894409,111.840889 471.083038,111.142113 
	C474.092041,110.482727 476.487610,110.714058 476.519104,115.067955 
	C479.918060,112.793549 482.684479,110.318428 486.382324,109.760925 
	C488.431915,109.451920 490.495453,109.266922 490.858490,112.173492 
	C491.155304,114.549515 491.475006,116.513710 488.164093,117.499756 
	C479.830627,119.981575 478.119141,122.490036 478.333130,131.154755 
	C478.472168,136.783295 478.957275,142.405685 479.381805,148.023712 
	C479.577728,150.616333 478.875854,152.120285 475.949249,152.249359 
	C473.234406,152.369095 471.293823,151.716064 471.045044,148.710129 
	C470.525085,142.427002 470.089447,136.136887 469.580872,129.389374 
z"/>
<path fill="#000000" opacity="1.000000" stroke="none" 
	d="
M899.858215,419.685608 
	C906.769104,417.665833 913.265747,415.654602 919.816895,413.839996 
	C922.007446,413.233276 924.649353,411.347870 926.284119,414.797577 
	C927.629700,417.636841 927.869690,420.266174 923.390442,421.832397 
	C927.449585,424.033752 929.428040,427.023224 930.890137,430.395905 
	C931.701904,432.268494 931.929810,434.015900 929.405945,434.721558 
	C927.399414,435.282501 925.456909,436.368683 923.738647,433.763123 
	C917.653381,424.535461 915.904053,423.947693 905.421021,426.897003 
	C901.590881,427.974609 897.768372,429.079895 893.944458,430.179474 
	C891.033813,431.016449 888.218140,432.239502 886.952148,427.708984 
	C885.626099,422.963776 889.217346,423.006470 891.855713,422.086884 
	C894.357361,421.214966 896.926086,420.535248 899.858215,419.685608 
z"/>
<path fill="#000000" opacity="1.000000" stroke="none" 
	d="
M637.145325,157.231552 
	C639.768188,149.821686 642.170471,142.747025 644.757202,135.740463 
	C645.485901,133.766861 645.329407,130.600418 648.750183,131.009033 
	C651.673523,131.358246 654.260742,132.446655 653.854614,136.520187 
	C657.684082,135.625748 661.135742,135.286972 664.580688,136.090027 
	C666.531067,136.544708 668.163452,137.375687 667.332458,139.827789 
	C666.624634,141.916672 666.539490,144.415329 662.986328,144.008667 
	C653.277710,142.897537 650.692505,144.611465 647.413208,153.669693 
	C645.661743,158.507751 643.950134,163.360458 642.256165,168.218979 
	C641.403320,170.664780 640.059143,171.704453 637.352417,170.660904 
	C634.887573,169.710587 633.137512,168.600128 634.196472,165.585678 
	C635.132080,162.922348 636.062134,160.257019 637.145325,157.231552 
z"/>
<path fill="#000000" opacity="1.000000" stroke="none" 
	d="
M678.031616,159.936523 
	C675.391296,166.258621 672.815063,172.195526 670.453796,178.216736 
	C669.335022,181.069473 667.897522,182.152039 664.801697,180.880173 
	C661.714478,179.611801 661.423523,177.831116 662.631775,175.011856 
	C666.617493,165.711777 670.436218,156.340332 674.371826,147.018585 
	C677.165771,140.401123 677.653381,140.311310 683.962097,144.945404 
	C682.743835,150.045624 680.050659,154.659805 678.031616,159.936523 
z"/>
<path fill="#000000" opacity="1.000000" stroke="none" 
	d="
M681.779053,926.336792 
	C682.718384,928.523438 683.405518,930.408203 684.278625,932.202393 
	C685.635803,934.991455 685.129517,936.763977 682.087952,938.076599 
	C678.921143,939.443237 677.608154,938.178772 676.459900,935.420410 
	C672.362976,925.579285 668.175598,915.774902 663.915710,906.003113 
	C662.639526,903.075684 662.772339,901.211060 666.120728,899.743347 
	C669.928284,898.074402 670.711670,900.409546 671.804749,903.015564 
	C675.025757,910.695068 678.335327,918.337402 681.779053,926.336792 
z"/>
<path fill="#000000" opacity="1.000000" stroke="none" 
	d="
M324.135315,192.015656 
	C325.206299,194.628357 327.876770,196.811401 324.376068,199.227554 
	C321.579926,201.157394 319.633484,201.557953 317.695007,197.886810 
	C312.718231,188.461700 307.409607,179.210342 302.149811,169.937073 
	C300.658875,167.308426 299.939667,165.356247 303.443481,163.517365 
	C306.843292,161.733032 308.144226,163.201813 309.621277,165.918549 
	C314.315826,174.553146 319.173615,183.099030 324.135315,192.015656 
z"/>
<path fill="#000000" opacity="1.000000" stroke="none" 
	d="
M526.820374,141.476379 
	C528.825562,144.831223 528.499023,147.601517 525.612000,149.694885 
	C523.484436,151.237625 521.114319,150.978134 519.147400,149.310822 
	C516.983704,147.476685 516.639587,145.034576 517.801514,142.505432 
	C519.315063,139.210861 522.527222,138.766129 526.820374,141.476379 
z"/>
<path fill="#000000" opacity="1.000000" stroke="none" 
	d="
M778.850830,252.946075 
	C779.273315,249.105896 781.187561,246.946594 784.667847,246.998245 
	C787.640808,247.042358 789.666870,248.998169 790.049194,251.931381 
	C790.410034,254.699661 788.810181,256.822266 786.267395,257.713196 
	C782.284790,259.108551 779.983765,257.103882 778.850830,252.946075 
z"/>
<path fill="#000000" opacity="1.000000" stroke="none" 
	d="
M119.440262,551.765869 
	C115.744858,552.322571 113.553299,550.869385 112.814026,547.661865 
	C112.200188,544.998535 113.000877,542.680969 115.655121,541.422974 
	C118.064224,540.281189 120.221741,540.950928 122.006050,542.759888 
	C124.725761,545.517212 123.874237,548.828247 119.440262,551.765869 
z"/>
<path fill="#000000" opacity="1.000000" stroke="none" 
	d="
M902.165222,466.853577 
	C906.086914,466.724915 908.401855,468.378845 908.776062,471.882751 
	C909.044128,474.392212 907.753113,476.382568 905.221069,477.267670 
	C902.316589,478.282928 899.720642,477.602417 898.408508,474.846893 
	C896.682800,471.223114 897.905640,468.400513 902.165222,466.853577 
z"/>
<path fill="#000000" opacity="1.000000" stroke="none" 
	d="
M509.374817,935.440063 
	C509.755310,939.616699 507.461517,941.513977 504.207367,941.829346 
	C501.184357,942.122314 499.201721,940.088989 498.783752,937.085938 
	C498.371460,934.123840 499.575806,931.677368 502.599365,930.938843 
	C505.992798,930.110046 508.445984,931.478577 509.374817,935.440063 
z"/>
<path fill="#000000" opacity="1.000000" stroke="none" 
	d="
M297.031006,158.469604 
	C292.978119,157.452667 292.084290,154.795242 292.959320,151.533798 
	C293.638123,149.003708 295.838623,147.780823 298.323364,148.007858 
	C301.063141,148.258194 302.991821,150.036423 303.053406,152.892166 
	C303.131836,156.526794 300.816711,158.164719 297.031006,158.469604 
z"/>
<path fill="#000000" opacity="1.000000" stroke="none" 
	d="
M688.695190,135.859833 
	C685.171204,138.075699 682.678345,137.001724 680.875732,134.070770 
	C679.332336,131.561279 680.002625,129.151733 682.314453,127.562561 
	C684.577209,126.007149 687.126648,126.242340 689.120300,128.173798 
	C691.605103,130.581100 691.138550,133.168076 688.695190,135.859833 
z"/>
<path fill="#000000" opacity="1.000000" stroke="none" 
	d="
M691.942505,948.157593 
	C691.606140,952.295593 689.492859,954.444092 685.753540,954.077637 
	C682.881897,953.796326 681.586121,951.579102 681.698181,948.704773 
	C681.803162,946.015015 683.291748,944.319397 685.866394,943.848022 
	C688.986633,943.276794 690.934875,944.830505 691.942505,948.157593 
z"/>
</svg>